# xmcd
#
# Track frame offsets:
#	183
#	10405
#	20418
#	32255
#	42563
#	56008
#	66068
#	76405
#	87843
#	99573
#	109055
#	119330
#
# Disc length: 1743 seconds
#
# Revision: 1
# Processed by: cddbd v1.5.2PL0 Copyright (c) Steve Scherf et al.
# Submitted via: audiograbber 1.83.01
#
DISCID=9206cd0c
DTITLE=Drifters, The - Favorite Hits
DYEAR=1900
DGENRE=
TTITLE0=Save the Last Dance for Me
TTITLE1=There Goes My Baby
TTITLE2=Under the Boardwalk
TTITLE3=Up on the Roof
TTITLE4=On Broadway
TTITLE5=Please Stay (Don't Go)
TTITLE6=Dance with Me
TTITLE7=This Magic Moment
TTITLE8=Sweets for my Sweet
TTITLE9=I Count the Tears
TTITLE10=Saturday Night at the Movies
TTITLE11=Some Kind of Wonderful
EXTD=
EXTT0=
EXTT1=
EXTT2=
EXTT3=
EXTT4=
EXTT5=
EXTT6=
EXTT7=
EXTT8=
EXTT9=
EXTT10=
EXTT11=
PLAYORDER=
